<svg width="16" height="16" viewBox="0 0 16 16" fill="none" xmlns="http://www.w3.org/2000/svg">
<path d="M6.16663 5.33337H1.16663C0.523315 5.33337 0 4.81006 0 4.16663V1.16663C0 0.523315 0.523315 0 1.16663 0H6.16663C6.81006 0 7.33337 0.523315 7.33337 1.16663V4.16663C7.33337 4.81006 6.81006 5.33337 6.16663 5.33337ZM1.16663 1C1.07471 1 1 1.07471 1 1.16663V4.16663C1 4.25867 1.07471 4.33337 1.16663 4.33337H6.16663C6.25867 4.33337 6.33337 4.25867 6.33337 4.16663V1.16663C6.33337 1.07471 6.25867 1 6.16663 1H1.16663Z" fill="#ffffff"/>
<path d="M6.16663 16H1.16663C0.523315 16 0 15.4767 0 14.8334V7.83337C0 7.18994 0.523315 6.66663 1.16663 6.66663H6.16663C6.81006 6.66663 7.33337 7.18994 7.33337 7.83337V14.8334C7.33337 15.4767 6.81006 16 6.16663 16ZM1.16663 7.66663C1.07471 7.66663 1 7.74133 1 7.83337V14.8334C1 14.9253 1.07471 15 1.16663 15H6.16663C6.25867 15 6.33337 14.9253 6.33337 14.8334V7.83337C6.33337 7.74133 6.25867 7.66663 6.16663 7.66663H1.16663Z" fill="#ffffff"/>
<path d="M14.8333 16H9.83325C9.18982 16 8.6665 15.4767 8.6665 14.8334V11.8334C8.6665 11.1899 9.18982 10.6666 9.83325 10.6666H14.8333C15.4766 10.6666 15.9999 11.1899 15.9999 11.8334V14.8334C15.9999 15.4767 15.4766 16 14.8333 16ZM9.83325 11.6666C9.74121 11.6666 9.6665 11.7413 9.6665 11.8334V14.8334C9.6665 14.9253 9.74121 15 9.83325 15H14.8333C14.9252 15 14.9999 14.9253 14.9999 14.8334V11.8334C14.9999 11.7413 14.9252 11.6666 14.8333 11.6666H9.83325Z" fill="#ffffff"/>
<path d="M14.8333 9.33337H9.83325C9.18982 9.33337 8.6665 8.81006 8.6665 8.16663V1.16663C8.6665 0.523315 9.18982 0 9.83325 0H14.8333C15.4766 0 15.9999 0.523315 15.9999 1.16663V8.16663C15.9999 8.81006 15.4766 9.33337 14.8333 9.33337ZM9.83325 1C9.74121 1 9.6665 1.07471 9.6665 1.16663V8.16663C9.6665 8.25867 9.74121 8.33337 9.83325 8.33337H14.8333C14.9252 8.33337 14.9999 8.25867 14.9999 8.16663V1.16663C14.9999 1.07471 14.9252 1 14.8333 1H9.83325Z" fill="#ffffff"/>
</svg>
