<svg width="19" height="12" viewBox="0 0 19 12" fill="none" xmlns="http://www.w3.org/2000/svg">
<rect x="0.5" y="0.5" width="18" height="11" rx="0.5" stroke="#ffffff"/>
<path d="M6.21777 4.87677C6.21777 5.17408 6.12771 5.4269 5.94759 5.63523C5.76747 5.84357 5.51465 5.9868 5.18913 6.06492V6.08445C5.57324 6.1322 5.86404 6.24938 6.06152 6.43602C6.25901 6.62048 6.35775 6.87004 6.35775 7.18471C6.35775 7.64261 6.19173 7.9996 5.8597 8.25568C5.52767 8.50958 5.05349 8.63654 4.43717 8.63654C3.92068 8.63654 3.46278 8.55082 3.06348 8.37937V7.52325C3.24794 7.61657 3.45085 7.69253 3.6722 7.75112C3.89355 7.80971 4.11274 7.83901 4.32975 7.83901C4.66178 7.83901 4.90701 7.78259 5.06543 7.66974C5.22385 7.55689 5.30306 7.37569 5.30306 7.12612C5.30306 6.9026 5.21191 6.74417 5.02962 6.65086C4.84733 6.55754 4.55653 6.51089 4.15723 6.51089H3.7959V5.7394H4.16374C4.53266 5.7394 4.80176 5.69166 4.97103 5.59617C5.14247 5.49852 5.22819 5.3325 5.22819 5.09812C5.22819 4.73788 5.0025 4.55776 4.55111 4.55776C4.39486 4.55776 4.23535 4.5838 4.07259 4.63588C3.912 4.68797 3.73296 4.77803 3.53548 4.90607L3.06999 4.21271C3.50401 3.90021 4.02159 3.74396 4.62272 3.74396C5.11534 3.74396 5.5038 3.84378 5.78809 4.04344C6.07454 4.24309 6.21777 4.52087 6.21777 4.87677Z" fill="#ffffff"/>
<path d="M15.4072 8.57143H12.0804V7.87156L13.2751 6.66388C13.6288 6.30147 13.8599 6.05082 13.9684 5.91193C14.0769 5.77087 14.1551 5.64066 14.2028 5.5213C14.2505 5.40194 14.2744 5.27825 14.2744 5.15021C14.2744 4.95924 14.2212 4.81709 14.1149 4.72378C14.0107 4.63046 13.8708 4.5838 13.695 4.5838C13.5105 4.5838 13.3315 4.62612 13.1579 4.71075C12.9843 4.79539 12.8031 4.91583 12.6143 5.07208L12.0674 4.4243C12.3018 4.22464 12.496 4.08358 12.6501 4.00112C12.8041 3.91865 12.9723 3.85572 13.1546 3.81232C13.3369 3.76674 13.5409 3.74396 13.7666 3.74396C14.0639 3.74396 14.3265 3.79821 14.5544 3.90672C14.7822 4.01522 14.9591 4.16713 15.085 4.36245C15.2108 4.55776 15.2738 4.78128 15.2738 5.03302C15.2738 5.2522 15.2347 5.45837 15.1566 5.65151C15.0806 5.84248 14.9613 6.03888 14.7985 6.2407C14.6379 6.44253 14.3536 6.73007 13.9456 7.10333L13.3337 7.6795V7.72508H15.4072V8.57143Z" fill="#ffffff"/>
<rect x="8.5238" y="3.80951" width="0.952381" height="4.7619" fill="#ffffff"/>
</svg>
