<svg width="18" height="18" viewBox="0 0 18 18" fill="none" xmlns="http://www.w3.org/2000/svg">
<path d="M17.8856 8.64983C17.7248 8.42986 13.8934 3.26367 8.99991 3.26367C4.10647 3.26367 0.274852 8.42986 0.114223 8.64962C-0.0380743 8.85831 -0.0380743 9.14135 0.114223 9.35004C0.274852 9.57001 4.10647 14.7362 8.99991 14.7362C13.8934 14.7362 17.7248 9.56998 17.8856 9.35022C18.0381 9.14156 18.0381 8.85831 17.8856 8.64983ZM8.99991 13.5494C5.39537 13.5494 2.27345 10.1205 1.3493 8.99953C2.27226 7.87759 5.38764 4.45048 8.99991 4.45048C12.6043 4.45048 15.726 7.87878 16.6505 9.00034C15.7276 10.1222 12.6122 13.5494 8.99991 13.5494Z" fill="#7E8890"/>
<path d="M8.99991 5.4397C7.03671 5.4397 5.43945 7.03695 5.43945 9.00015C5.43945 10.9634 7.03671 12.5606 8.99991 12.5606C10.9631 12.5606 12.5604 10.9634 12.5604 9.00015C12.5604 7.03695 10.9631 5.4397 8.99991 5.4397ZM8.99991 11.3738C7.69104 11.3738 6.62629 10.309 6.62629 9.00015C6.62629 7.69132 7.69107 6.62654 8.99991 6.62654C10.3087 6.62654 11.3735 7.69132 11.3735 9.00015C11.3735 10.309 10.3088 11.3738 8.99991 11.3738Z" fill="#7E8890"/>
<line x1="2.02437" y1="15.2933" x2="16.2933" y2="1.97563" stroke="#7E8890" stroke-linecap="round" stroke-linejoin="round"/>
</svg>
