<svg width="16" height="16" viewBox="0 0 16 16" fill="none" xmlns="http://www.w3.org/2000/svg">
<path d="M16 7.6875V8.3125C16 9.34644 15.1589 10.1875 14.125 10.1875H13.8102C13.7274 10.1875 13.6523 10.2396 13.619 10.3203L13.6147 10.3308C13.5807 10.4128 13.5967 10.5031 13.6553 10.5616C13.8993 10.8057 13.8993 11.2014 13.6553 11.4456C13.4111 11.6896 13.0155 11.6897 12.7714 11.4456C12.3536 11.0278 12.2314 10.4025 12.46 9.85242L12.4637 9.84302C12.6909 9.29309 13.2194 8.9375 13.8102 8.9375H14.125C14.4696 8.9375 14.75 8.6571 14.75 8.3125V7.6875C14.75 7.3429 14.4696 7.0625 14.125 7.0625H13.8102C13.2194 7.0625 12.6909 6.70691 12.4636 6.15674L12.4598 6.14758C12.2314 5.59753 12.3536 4.97217 12.7714 4.55444L12.994 4.33191C13.2377 4.08826 13.2377 3.69177 12.994 3.448L12.552 3.0061C12.434 2.88806 12.277 2.823 12.1101 2.823C11.9431 2.823 11.7861 2.88806 11.6682 3.0061L11.4456 3.22864C11.0278 3.64636 10.4025 3.76868 9.85242 3.54016L9.84314 3.53625C9.29309 3.30908 8.9375 2.78064 8.9375 2.18982V1.875C8.9375 1.5304 8.6571 1.25 8.3125 1.25H7.6875C7.3429 1.25 7.0625 1.5304 7.0625 1.875V2.18982C7.0625 2.78064 6.70691 3.30908 6.15674 3.53625L6.1488 3.53955C5.59741 3.76855 4.97217 3.64624 4.55444 3.22864L4.33179 3.00598C4.21387 2.88794 4.05688 2.823 3.88989 2.823C3.72302 2.823 3.56604 2.88794 3.448 3.00598L3.00598 3.448C2.76233 3.69165 2.76233 4.08813 3.00598 4.33191L3.22864 4.55444C3.64636 4.97217 3.76855 5.59753 3.54004 6.14771L3.53625 6.15698C3.30908 6.70691 2.78064 7.0625 2.18982 7.0625H1.875C1.5304 7.0625 1.25 7.3429 1.25 7.6875V8.3125C1.25 8.6571 1.5304 8.9375 1.875 8.9375H2.18982C2.78052 8.9375 3.30908 9.29309 3.53625 9.84326L3.54053 9.85339C3.76855 10.4025 3.64624 11.0278 3.22852 11.4456L3.00598 11.6681C2.88794 11.7861 2.823 11.9431 2.823 12.1101C2.823 12.277 2.88794 12.434 3.00598 12.552L3.448 12.9939C3.69165 13.2377 4.08813 13.2377 4.33179 12.9939L4.55444 12.7714C4.97205 12.3536 5.59741 12.2314 6.14758 12.46L6.15686 12.4637C6.70691 12.6909 7.0625 13.2194 7.0625 13.8102V14.125C7.0625 14.4696 7.3429 14.75 7.6875 14.75H8.3125C8.6571 14.75 8.9375 14.4696 8.9375 14.125V13.8102C8.9375 13.2194 9.29309 12.6909 9.84326 12.4637L9.8512 12.4604C10.4025 12.2314 11.0278 12.3536 11.4456 12.7714L11.6681 12.9939C11.9119 13.2377 12.3083 13.2377 12.552 12.9939C12.7961 12.7499 13.1918 12.7499 13.4359 12.9939C13.6799 13.238 13.6799 13.6338 13.4359 13.8778C12.7048 14.6089 11.5153 14.6089 10.7842 13.8778L10.5616 13.6553C10.5031 13.5967 10.4128 13.5806 10.3318 13.6143L10.3206 13.619C10.2396 13.6523 10.1875 13.7274 10.1875 13.8102V14.125C10.1875 15.1589 9.34631 16 8.3125 16H7.6875C6.65356 16 5.8125 15.1589 5.8125 14.125V13.8102C5.8125 13.7274 5.76038 13.6523 5.67969 13.619L5.66699 13.6138C5.58704 13.5806 5.49695 13.5967 5.43835 13.6553L5.2157 13.8778C4.48474 14.6089 3.29517 14.6089 2.56409 13.8778L2.12219 13.4359C1.76807 13.0817 1.573 12.6108 1.573 12.1101C1.573 11.6093 1.76807 11.1384 2.12219 10.7842L2.34473 10.5616C2.40332 10.5031 2.41943 10.4128 2.38574 10.3318L2.3811 10.3206C2.34766 10.2396 2.27258 10.1875 2.18982 10.1875H1.875C0.841064 10.1875 0 9.34644 0 8.3125V7.6875C0 6.65369 0.841064 5.8125 1.875 5.8125H2.18982C2.27258 5.8125 2.34766 5.76038 2.38098 5.67969L2.38562 5.66833C2.41943 5.58716 2.40332 5.49695 2.34473 5.43835L2.12219 5.21582C1.39111 4.48474 1.39111 3.29529 2.12219 2.56421L2.56409 2.12219C2.91833 1.76807 3.38916 1.573 3.88989 1.573C4.39075 1.573 4.86157 1.76807 5.21582 2.12219L5.43835 2.34473C5.49695 2.40332 5.58716 2.41943 5.66821 2.38574L5.67944 2.38098C5.76038 2.34766 5.8125 2.27258 5.8125 2.18982V1.875C5.8125 0.841064 6.65369 0 7.6875 0H8.3125C9.34644 0 10.1875 0.841064 10.1875 1.875V2.18982C10.1875 2.27258 10.2396 2.34766 10.3203 2.38098L10.333 2.38623C10.413 2.41943 10.5032 2.40332 10.5616 2.34473L10.7843 2.12219C11.1384 1.76794 11.6093 1.573 12.1101 1.573C12.6108 1.573 13.0818 1.76794 13.4359 2.12219L13.8778 2.56409C14.6089 3.29517 14.6089 4.48474 13.8778 5.2157L13.6553 5.43835C13.5967 5.49683 13.5806 5.58704 13.6143 5.66821L13.6189 5.67944C13.6523 5.76025 13.7274 5.8125 13.8102 5.8125H14.125C15.1589 5.8125 16 6.65356 16 7.6875ZM7.99939 12.0625C8.3446 12.0625 8.62439 11.7827 8.62439 11.4375V11.0756C9.48413 10.9554 10.125 10.2483 10.125 9.36719V9.07031C10.125 8.10022 9.33484 7.31104 8.36353 7.31104H7.79089C7.51074 7.31104 7.28296 7.0791 7.28296 6.79407V6.70959C7.28296 6.42981 7.50122 6.21875 7.79089 6.21875H8.3324C8.49158 6.21875 8.65625 6.32532 8.65625 6.50366C8.65625 6.84875 8.93604 7.12866 9.28125 7.12866C9.62646 7.12866 9.90625 6.84875 9.90625 6.50366C9.90625 5.75464 9.35315 5.12952 8.62439 4.99561V4.59375C8.62439 4.24854 8.3446 3.96875 7.99939 3.96875C7.65417 3.96875 7.37439 4.24854 7.37439 4.59375V5.01709C7.06506 5.09021 6.78174 5.24438 6.55188 5.46924C6.21716 5.79675 6.03296 6.23718 6.03296 6.70959V6.79407C6.03296 7.76843 6.82153 8.56104 7.79089 8.56104H8.36353C8.64551 8.56104 8.875 8.78955 8.875 9.07031V9.36719C8.875 9.63879 8.65515 9.84375 8.36353 9.84375H7.43286C7.25659 9.84375 7.12378 9.71765 7.12378 9.55029C7.12378 9.2052 6.84399 8.92529 6.49878 8.92529C6.15356 8.92529 5.87378 9.2052 5.87378 9.55029C5.87378 9.96899 6.03784 10.3596 6.33569 10.6505C6.61475 10.9229 6.98169 11.0782 7.37439 11.0924V11.4375C7.37439 11.7827 7.65417 12.0625 7.99939 12.0625Z" fill="#ffffff"/>
</svg>
