<svg width="18" height="17" viewBox="0 0 18 17" fill="none" xmlns="http://www.w3.org/2000/svg">
<path d="M16.6526 7.94721C16.9676 7.64028 17.0787 7.18982 16.9429 6.77108C16.8067 6.35234 16.4521 6.05342 16.0164 5.98998L12.1423 5.42707C11.9773 5.40304 11.8347 5.29956 11.761 5.14994L10.029 1.63949C9.83453 1.24509 9.43982 1 8.99993 1C8.56037 1 8.16565 1.24509 7.97118 1.63949L6.23886 5.14994C6.16517 5.29956 6.02228 5.40304 5.85728 5.42707L1.98319 5.9903C1.54779 6.05342 1.19313 6.35234 1.05696 6.77108C0.921119 7.18982 1.03229 7.64028 1.34723 7.94721L4.15027 10.6794C4.26978 10.7961 4.32456 10.9639 4.29637 11.128L3.63478 14.9864C3.56045 15.4198 3.73506 15.8495 4.091 16.1084C4.44663 16.3675 4.90959 16.4012 5.29949 16.1958L8.76413 14.3741C8.91183 14.2966 9.08804 14.2966 9.23574 14.3741L12.7007 16.1958C12.8699 16.2849 13.0531 16.3288 13.2354 16.3288C13.4722 16.3288 13.708 16.2548 13.9092 16.1084C14.2651 15.8495 14.4397 15.4198 14.3654 14.9864L13.7035 11.1283C13.6753 10.9639 13.7301 10.7964 13.8496 10.6798L16.6526 7.94721ZM13.0723 11.2366L13.7339 15.0947C13.7673 15.2888 13.692 15.4743 13.5324 15.5903C13.3725 15.706 13.1736 15.72 12.999 15.6291L9.53401 13.807C9.36709 13.7196 9.18319 13.6754 8.99993 13.6754C8.81667 13.6754 8.63309 13.7196 8.46585 13.8074L5.00154 15.6291C4.82629 15.72 4.62733 15.706 4.46778 15.5903C4.30822 15.4743 4.23325 15.2891 4.26625 15.0947L4.92785 11.2366C4.9916 10.8643 4.86826 10.4843 4.59785 10.221L1.79449 7.48842C1.6532 7.35065 1.60514 7.1565 1.66633 6.96908C1.72721 6.78133 1.88003 6.65254 2.07514 6.62402L5.94891 6.06111C6.3228 6.00696 6.64607 5.77244 6.81299 5.43348L8.54531 1.92303C8.63245 1.74617 8.80258 1.64077 8.99961 1.64077C9.19697 1.64077 9.36677 1.74617 9.45424 1.92303L11.1866 5.43348C11.3535 5.77244 11.6764 6.00696 12.0503 6.06111L15.9244 6.62402C16.1195 6.65254 16.2723 6.78133 16.3332 6.96908C16.3941 7.1565 16.3463 7.35065 16.2051 7.48842L13.402 10.2207C13.1316 10.4843 13.0083 10.864 13.0723 11.2366Z" fill="#ffffff" stroke="#ffffff" stroke-width="0.5"/>
</svg>
