<svg width="15" height="15" viewBox="0 0 15 15" fill="none" xmlns="http://www.w3.org/2000/svg">
<path d="M1.22101 12.2093H3.8838V13.7791C3.8838 14.0465 4.0931 14.2558 4.36054 14.2558H10.6396C10.9071 14.2558 11.1164 14.0465 11.1164 13.7791V12.2093H13.7791C14.0466 12.2093 14.2559 12 14.2559 11.7326V3.26744C14.2559 3 14.0466 2.7907 13.7791 2.7907H11.1164V1.22093C11.1164 0.953489 10.9071 0.744186 10.6396 0.744186H4.36054C4.0931 0.744186 3.8838 0.953489 3.8838 1.22093V2.7907H1.22101C0.953565 2.7907 0.744263 3 0.744263 3.26744V11.7326C0.744263 11.9884 0.965193 12.2093 1.22101 12.2093ZM10.1629 13.3023H4.83729V9.37209H10.1629V13.3023ZM4.83729 1.69767H10.1629V2.7907H4.83729V1.69767ZM1.69775 3.74419H4.36054H10.6396H13.3024V11.2558H11.1164V9.37209H11.9652C12.2326 9.37209 12.4419 9.16279 12.4419 8.89535C12.4419 8.62791 12.2326 8.4186 11.9652 8.4186H10.6396H4.36054H3.04659C2.77915 8.4186 2.56984 8.62791 2.56984 8.89535C2.56984 9.16279 2.77915 9.37209 3.04659 9.37209H3.89543V11.2558H1.69775V3.74419Z" fill="#2F80ED"/>
<path d="M10.0233 6.19769H11.2558C11.5233 6.19769 11.7326 5.98839 11.7326 5.72095C11.7326 5.4535 11.5233 5.2442 11.2558 5.2442H10.0233C9.75581 5.2442 9.54651 5.4535 9.54651 5.72095C9.54651 5.98839 9.75581 6.19769 10.0233 6.19769Z" fill="#2F80ED"/>
</svg>
