<svg width="16" height="16" viewBox="0 0 16 16" fill="none" xmlns="http://www.w3.org/2000/svg">
<path d="M13.717 11C14.0622 11 14.342 10.7202 14.342 10.375V2.5C14.342 1.1215 13.2205 0 11.842 0H4.15802C2.77952 0 1.65802 1.1215 1.65802 2.5V13.5C1.65802 14.8785 2.77952 16 4.15802 16H11.842C13.2206 16 14.342 14.8785 14.3421 13.5C14.3421 13.1548 14.0622 12.875 13.7171 12.875C13.3719 12.875 13.0921 13.1548 13.0921 13.5C13.0921 14.1892 12.5313 14.75 11.8421 14.75H4.15802C3.46877 14.75 2.90802 14.1892 2.90802 13.5V2.5C2.90802 1.81075 3.46877 1.25 4.15802 1.25H11.8421C12.5313 1.25 13.0921 1.81075 13.0921 2.5V10.375C13.092 10.7202 13.3719 11 13.717 11Z" fill="#ffffff"/>
<path d="M11.217 3.75H4.77948C4.43429 3.75 4.15448 4.02981 4.15448 4.375C4.15448 4.72019 4.43429 5 4.77948 5H11.217C11.5622 5 11.842 4.72019 11.842 4.375C11.842 4.02981 11.5621 3.75 11.217 3.75Z" fill="#ffffff"/>
<path d="M11.217 6.25H4.77948C4.43429 6.25 4.15448 6.52981 4.15448 6.875C4.15448 7.22019 4.43429 7.5 4.77948 7.5H11.217C11.5622 7.5 11.842 7.22019 11.842 6.875C11.842 6.52981 11.5621 6.25 11.217 6.25Z" fill="#ffffff"/>
<path d="M8.68917 8.75H4.77948C4.43429 8.75 4.15448 9.02981 4.15448 9.375C4.15448 9.72019 4.43429 10 4.77948 10H8.68923C9.03442 10 9.3142 9.72019 9.3142 9.375C9.31417 9.02981 9.03435 8.75 8.68917 8.75Z" fill="#ffffff"/>
</svg>
