<svg width="16" height="16" viewBox="0 0 16 16" fill="none" xmlns="http://www.w3.org/2000/svg">
<path d="M13.4084 9.00571L13.344 9.35313L13.65 9.52982L14.8991 10.2511C14.5816 11.2252 14.0646 12.1078 13.3961 12.8503L12.1532 12.1326L11.8479 11.9563L11.5793 12.1846C11.0628 12.6237 10.4719 12.9649 9.83551 13.1914L9.50314 13.3097V13.6625V15.0986C8.54098 15.2997 7.5115 15.3094 6.50314 15.0986V13.6625V13.3076L6.16822 13.1905C5.53046 12.9674 4.94131 12.6271 4.42924 12.1866L4.16031 11.9552L3.85311 12.1326L2.61035 12.8502C1.94189 12.105 1.42505 11.2228 1.10764 10.2522L2.35318 9.53295L2.65916 9.35625L2.59477 9.00884C2.47156 8.34407 2.47156 7.66209 2.59477 6.99733L2.65916 6.64991L2.35318 6.47322L1.10757 5.75392C1.42503 4.78028 1.94194 3.89812 2.61012 3.15591L3.84954 3.87332L4.15496 4.0501L4.42384 3.82155C4.9404 3.38248 5.53128 3.04123 6.16765 2.81477L6.50002 2.69649V2.34371V0.907525C7.46217 0.706417 8.49166 0.696754 9.50002 0.907528V2.34058V2.6954L9.83493 2.81254C10.4727 3.03562 11.0619 3.37593 11.5739 3.81649L11.8428 4.04785L12.1501 3.87045L13.3928 3.1528C14.0613 3.898 14.5781 4.78024 14.8955 5.75083L13.65 6.47009L13.344 6.64678L13.4084 6.9942C13.5316 7.65897 13.5316 8.34094 13.4084 9.00571ZM5.00002 7.99996C5.00002 9.65422 6.34575 11 8.00002 11C9.65428 11 11 9.65422 11 7.99996C11 6.34569 9.65428 4.99996 8.00002 4.99996C6.34575 4.99996 5.00002 6.34569 5.00002 7.99996Z" stroke="#ffffff"/>
</svg>
