<svg width="16" height="16" viewBox="0 0 16 16" fill="none" xmlns="http://www.w3.org/2000/svg">
<path d="M7.56388 5.14061L6.20767 6.49682C5.70801 6.99648 5.2055 7.49614 4.7087 8.0015C4.59164 8.12142 4.50312 8.28131 4.46886 8.43834C4.28899 9.26349 4.11482 10.0886 3.94065 10.9138L3.84358 11.3706C3.79789 11.5933 3.85785 11.816 4.00918 11.9673C4.12624 12.0844 4.28899 12.1501 4.4603 12.1501C4.50884 12.1501 4.55737 12.1444 4.60591 12.1358L5.10842 12.0302C5.90788 11.8617 6.71018 11.6904 7.50964 11.5248C7.69522 11.4848 7.85226 11.402 7.98645 11.2678C10.2306 9.0208 12.4748 6.77663 14.719 4.53531C14.8846 4.36971 14.9759 4.17271 14.9988 3.93002C15.0016 3.89004 14.9988 3.85007 14.9902 3.81295C14.9759 3.75585 14.9645 3.69589 14.9503 3.63879C14.9188 3.49317 14.8846 3.32757 14.8161 3.16768C14.3963 2.20834 13.6997 1.5231 12.746 1.13765C12.5547 1.06056 12.352 1.03486 12.175 1.01202L12.1265 1.00631C11.8695 0.974906 11.6354 1.06056 11.4327 1.26613C10.1478 2.55668 8.85443 3.85007 7.56388 5.14061ZM12.0323 1.69441C12.038 1.69441 12.0408 1.69441 12.0465 1.69441L12.0951 1.70012C12.2435 1.71725 12.3806 1.73438 12.4891 1.78007C13.2657 2.09414 13.8367 2.65375 14.1822 3.44178C14.2222 3.53315 14.2479 3.65021 14.2736 3.77298C14.2821 3.81866 14.2936 3.86435 14.3021 3.91003C14.2907 3.96142 14.2707 3.99569 14.2307 4.0328C11.9837 6.27412 9.73954 8.52114 7.49536 10.7653C7.45824 10.8024 7.42398 10.8196 7.37259 10.831C6.57028 10.9994 5.77083 11.1679 4.96852 11.3364L4.54595 11.4249L4.6259 11.0508C4.80006 10.2285 4.97423 9.4034 5.15125 8.5811C5.15696 8.55541 5.1798 8.51543 5.2055 8.48688C5.7023 7.98437 6.19911 7.48471 6.69876 6.98791L8.05498 5.6317C9.34838 4.33831 10.6418 3.04491 11.9323 1.74866C11.9866 1.70298 12.0123 1.69441 12.0323 1.69441Z" fill="#2F80ED" stroke="#2F80ED" stroke-width="0.3"/>
<path d="M2.11066 4.11265H7.09581C7.28996 4.11265 7.44699 3.95562 7.44699 3.76147C7.44699 3.56731 7.28996 3.41028 7.09581 3.41028H2.11066C1.4968 3.41028 1 3.90993 1 4.52094V13.8688C1 14.4827 1.49966 14.9795 2.11066 14.9795H11.4557C12.0695 14.9795 12.5663 14.4798 12.5663 13.8688V9.08637C12.5663 8.89222 12.4093 8.73519 12.2151 8.73519C12.021 8.73519 11.864 8.89222 11.864 9.08637V13.8688C11.864 14.0944 11.6784 14.2799 11.4528 14.2799H2.11066C1.88511 14.2799 1.69952 14.0944 1.69952 13.8688V4.5238C1.69952 4.29824 1.88511 4.11265 2.11066 4.11265Z" fill="#2F80ED" stroke="#2F80ED" stroke-width="0.3"/>
</svg>
