<svg width="13" height="12" viewBox="0 0 13 12" fill="none" xmlns="http://www.w3.org/2000/svg">
<path d="M12.0698 8.57172C11.9899 8.32741 11.7256 8.19384 11.4795 8.27307L10.8703 8.46961C11.2435 7.70327 11.4389 6.86056 11.4389 6.00003C11.4389 2.87062 8.87483 0.324677 5.72303 0.324677C2.57127 0.324677 0.00714111 2.87062 0.00714111 6.00003C0.00714111 9.12944 2.57127 11.6754 5.72303 11.6754C5.98176 11.6754 6.19155 11.4671 6.19155 11.2102C6.19155 10.9533 5.98176 10.745 5.72303 10.745C3.08795 10.745 0.944172 8.61646 0.944172 6.00003C0.944172 3.38364 3.08795 1.25506 5.72303 1.25506C8.35815 1.25506 10.5019 3.38364 10.5019 6.00003C10.5019 6.72096 10.3381 7.42676 10.025 8.06801L9.81688 7.43178C9.73693 7.1875 9.47258 7.05382 9.22655 7.13313C8.98045 7.21254 8.84574 7.47499 8.92569 7.71931L9.47816 9.40769C9.54244 9.6043 9.7261 9.72931 9.92363 9.72931C9.97157 9.72931 10.0204 9.72194 10.0685 9.70646L11.769 9.15798C12.015 9.07856 12.1498 8.81616 12.0698 8.57172Z" fill="#2F80ED"/>
</svg>
