<svg width="18" height="20" viewBox="0 0 18 20" fill="none" xmlns="http://www.w3.org/2000/svg">
<path d="M8.4459 9.02326C8.69613 8.7752 8.69613 8.37209 8.4459 8.12403C8.19568 7.87597 7.78907 7.87597 7.53884 8.12403L4.1452 11.4884C3.56656 12.062 3.25378 12.8062 3.25378 13.6124C3.25378 14.4186 3.56656 15.1628 4.1452 15.7364C5.33376 16.9147 7.25734 16.9147 8.43026 15.7364L16.0933 8.13954C16.8909 7.34884 17.3288 6.29457 17.3288 5.1783C17.3288 4.06202 16.8909 3.00775 16.0933 2.21706C14.4356 0.573644 11.7614 0.573644 10.1036 2.21706L2.45619 9.79845C1.42402 10.8217 0.861023 12.1705 0.861023 13.6124C0.861023 15.0543 1.42402 16.4186 2.45619 17.4264C3.48836 18.4496 4.84895 19.0078 6.30337 19.0078C7.75779 19.0078 9.13402 18.4496 10.1505 17.4264L13.5442 14.062C13.7944 13.814 13.7944 13.4109 13.5442 13.1628C13.294 12.9147 12.8874 12.9147 12.6371 13.1628L9.24349 16.5271C8.46154 17.3023 7.41373 17.7364 6.30337 17.7364C5.19301 17.7364 4.1452 17.3023 3.36325 16.5271C2.5813 15.7519 2.14342 14.7132 2.14342 13.6124C2.14342 12.5116 2.5813 11.4729 3.36325 10.6977L11.0107 3.11628C11.5737 2.55814 12.3087 2.26357 13.0907 2.26357C13.8726 2.26357 14.6233 2.57364 15.1706 3.11628C15.7336 3.67442 16.0308 4.4031 16.0308 5.1783C16.0308 5.95349 15.718 6.69768 15.1706 7.24031L7.50757 14.8372C6.83509 15.5039 5.72473 15.5039 5.03662 14.8372C4.7082 14.5116 4.52053 14.0775 4.52053 13.6124C4.52053 13.1473 4.7082 12.7132 5.03662 12.3876L8.4459 9.02326Z" fill="#2F80ED"/>
</svg>
